<?xml version="1.0" encoding="iso-8859-1"?>
<!-- Generator: Adobe Illustrator 21.1.0, SVG Export Plug-In . SVG Version: 6.00 Build 0)  -->
<svg version="1.1" id="Layer_1" xmlns="http://www.w3.org/2000/svg" xmlns:xlink="http://www.w3.org/1999/xlink" x="0px" y="0px"
	 viewBox="0 0 868 428.1" style="enable-background:new 0 0 868 428.1;" xml:space="preserve">
<circle style="fill:none;stroke:#3CB371;stroke-width:16;stroke-miterlimit:10;" cx="104.6" cy="102.8" r="50"/>
<circle style="fill:none;stroke:#3CB371;stroke-width:16;stroke-miterlimit:10;" cx="242.3" cy="185.2" r="50"/>
<circle style="fill:none;stroke:#3CB371;stroke-width:16;stroke-miterlimit:10;" cx="79" cy="269.6" r="70"/>
<circle style="fill:none;stroke:#3CB371;stroke-width:16;stroke-miterlimit:10;" cx="402" cy="184.9" r="50"/>
<circle style="fill:none;stroke:#3CB371;stroke-width:16;stroke-miterlimit:10;" cx="561.3" cy="185.2" r="50"/>
<circle style="fill:none;stroke:#3CB371;stroke-width:16;stroke-miterlimit:10;" cx="800.9" cy="185.2" r="50"/>
<line style="fill:none;stroke:#3CB371;stroke-width:16;stroke-miterlimit:10;" x1="88.3" y1="202" x2="97.8" y2="152.4"/>
<line style="fill:none;stroke:#3CB371;stroke-width:16;stroke-miterlimit:10;" x1="197.2" y1="205.1" x2="141.5" y2="236.6"/>
<line style="fill:none;stroke:#3CB371;stroke-width:16;stroke-miterlimit:10;" x1="292.3" y1="185.2" x2="351.8" y2="185.2"/>
<line style="fill:none;stroke:#3CB371;stroke-width:16;stroke-miterlimit:10;" x1="451.8" y1="185.2" x2="511.3" y2="185.2"/>
<line style="fill:none;stroke:#3CB371;stroke-width:16;stroke-miterlimit:10;" x1="611.3" y1="185.2" x2="750.9" y2="185.2"/>
<circle style="fill:none;stroke:#3CB371;stroke-width:16;stroke-miterlimit:10;" cx="662.8" cy="275.9" r="20"/>
<circle style="fill:none;stroke:#3CB371;stroke-width:16;stroke-miterlimit:10;" cx="760.6" cy="276.2" r="20"/>
<line style="fill:none;stroke:#3CB371;stroke-width:16;stroke-miterlimit:10;" x1="776.6" y1="281.2" x2="815.2" y2="281.2"/>
<circle style="fill:none;stroke:#3CB371;stroke-width:16;stroke-miterlimit:10;" cx="835.2" cy="275.9" r="20"/>
<circle style="fill:none;stroke:#3CB371;stroke-width:16;stroke-miterlimit:10;" cx="531.5" cy="348.4" r="70"/>
<line style="fill:none;stroke:#3CB371;stroke-width:16;stroke-miterlimit:10;" x1="540.7" y1="278.8" x2="550.2" y2="229.2"/>
<circle style="fill:none;stroke:#3CB371;stroke-width:16;stroke-miterlimit:10;" cx="701.1" cy="31.3" r="20"/>
<line style="fill:none;stroke:#3CB371;stroke-width:16;stroke-miterlimit:10;" x1="667.8" y1="251.4" x2="699" y2="45.1"/>
<line style="fill:none;stroke:#3CB371;stroke-width:16;stroke-miterlimit:10;" x1="242.8" y1="166.7" x2="242.8" y2="207.1"/>
<line style="fill:none;stroke:#3CB371;stroke-width:16;stroke-miterlimit:10;" x1="402.4" y1="166.7" x2="402.4" y2="207.1"/>
<line style="fill:none;stroke:#3CB371;stroke-width:16;stroke-miterlimit:10;" x1="384.9" y1="174.1" x2="419.9" y2="174.1"/>
<line style="fill:none;stroke:#3CB371;stroke-width:16;stroke-miterlimit:10;" x1="768.6" y1="220.8" x2="762.7" y2="259.8"/>
<line style="fill:none;stroke:#3CB371;stroke-width:16;stroke-linecap:round;stroke-miterlimit:10;" x1="126.9" y1="54.2" x2="144.45" y2="38.827"/>
<line style="fill:none;stroke:#3CB371;stroke-width:16;stroke-linecap:round;stroke-miterlimit:10;" x1="583.6" y1="137.4" x2="601.15" y2="122.027"/>
</svg>
